<svg xmlns="http://www.w3.org/2000/svg" version="1.1" xmlns:xlink="http://www.w3.org/1999/xlink" xmlns:svgjs="http://svgjs.com/svgjs" width="512" height="512" x="0" y="0" viewBox="0 0 512 512" style="enable-background:new 0 0 512 512" xml:space="preserve" class="hovered-paths"><g><path fill="#dff6fd" d="M442.513 99.617a69.195 69.195 0 0 0-28.952 6.322c-10.258-28.38-37.236-48.761-69.042-49.232-37.017-.548-68.481 26.415-74.633 61.882 29.924 5.886 54.693 26.307 66.624 53.581h172.412c1.683 0 3.078-1.351 3.079-3.035v-.031c-.001-38.377-31.111-69.487-69.488-69.487z" data-original="#dff6fd" class="hovered-path"></path><path fill="#c8effe" d="M313.098 140.031a75.26 75.26 0 0 1-.506-10.266c.66-32.848 22.862-60.521 52.78-69.763a74.488 74.488 0 0 0-20.854-3.296c-37.017-.548-68.481 26.415-74.633 61.882 16.365 3.219 31.188 10.785 43.213 21.443z" data-original="#c8effe"></path><path fill="#ffe177" d="M252.078 115.854c-46.256 0-84.627 33.733-91.871 77.939 8.815 6.224 15.861 14.965 19.883 25.383l.362.939.937-.369a51.564 51.564 0 0 1 18.973-3.6c27.375 0 50.099 21.383 51.733 48.681a1.993 1.993 0 0 1-.546 1.495c-.396.42-.931.651-1.507.651h-70.788c17.06 21.388 43.339 35.097 72.824 35.097 51.422 0 93.108-41.686 93.108-93.108s-41.686-93.108-93.108-93.108z" data-original="#ffe177"></path><g fill="#ffd15b"><path d="m180.09 219.176.362.939.937-.369a51.564 51.564 0 0 1 18.973-3.6c3.748 0 7.405.414 10.936 1.176a94.332 94.332 0 0 1-.379-8.361c0-42.407 28.352-78.187 67.133-89.432a93.122 93.122 0 0 0-25.975-3.676c-46.256 0-84.627 33.733-91.871 77.939 8.815 6.226 15.861 14.966 19.884 25.384zM231.221 266.974h-51.968c17.06 21.388 43.339 35.097 72.824 35.097a93.16 93.16 0 0 0 25.975-3.676c-18.715-5.428-34.987-16.58-46.831-31.421z" fill="#ffd15b" data-original="#ffd15b"></path></g><path fill="#ffd15b" d="M252.078 94.005a7.5 7.5 0 0 1-7.5-7.5V65.252a7.5 7.5 0 0 1 15 0v21.253a7.5 7.5 0 0 1-7.5 7.5zM252.078 360.172a7.5 7.5 0 0 1-7.5-7.5V331.42a7.5 7.5 0 0 1 15 0v21.253a7.5 7.5 0 0 1-7.5 7.499z" data-original="#ffd15b"></path><path fill="#ffe177" d="M395.788 216.462h-21.253c-4.143 0-7.5-3.358-7.5-7.5s3.357-7.5 7.5-7.5h21.253c4.143 0 7.5 3.358 7.5 7.5s-3.357 7.5-7.5 7.5z" data-original="#ffe177"></path><path fill="#ffd15b" d="M358.136 155.235a7.5 7.5 0 0 1-3.757-13.996l18.405-10.626a7.5 7.5 0 0 1 7.5 12.99l-18.405 10.626a7.465 7.465 0 0 1-3.743 1.006zM136.6 266.974l-12.729 7.349a7.5 7.5 0 0 0 7.5 12.99l18.406-10.626c3.413-1.97 4.685-6.215 3.018-9.713z" data-original="#ffd15b"></path><path fill="#ffe177" d="M190.856 110.413a7.497 7.497 0 0 1-6.502-3.751l-10.626-18.406a7.5 7.5 0 0 1 12.99-7.5l10.626 18.406a7.5 7.5 0 0 1-6.488 11.251zM323.939 340.921a7.497 7.497 0 0 1-6.502-3.751l-10.626-18.406a7.5 7.5 0 0 1 12.99-7.5l10.626 18.406a7.5 7.5 0 0 1-6.488 11.251z" data-original="#ffe177"></path><path fill="#ffd15b" d="M146.02 155.235a7.465 7.465 0 0 1-3.743-1.006l-18.406-10.626a7.5 7.5 0 0 1 7.5-12.99l18.406 10.626a7.5 7.5 0 0 1-3.757 13.996zM376.527 288.319a7.465 7.465 0 0 1-3.743-1.006l-18.405-10.626a7.5 7.5 0 0 1-2.745-10.245 7.498 7.498 0 0 1 10.245-2.745l18.405 10.626a7.5 7.5 0 0 1-3.757 13.996z" data-original="#ffd15b"></path><path fill="#ffe177" d="M180.216 340.921a7.5 7.5 0 0 1-6.488-11.251l10.626-18.406a7.5 7.5 0 0 1 12.99 7.5l-10.626 18.406a7.499 7.499 0 0 1-6.502 3.751zM313.3 110.413a7.5 7.5 0 0 1-6.488-11.251l10.626-18.406a7.5 7.5 0 0 1 12.99 7.5l-10.626 18.406a7.499 7.499 0 0 1-6.502 3.751z" data-original="#ffe177"></path><path fill="#c8effe" d="M443.181 405.299a68.518 68.518 0 0 0-25.832 5.033 3.033 3.033 0 0 1-3.955-1.659c-10.9-26.593-36.854-45.421-67.265-45.871-31.935-.473-59.682 19.736-70.337 48.169 30.322 6.756 53.065 33.855 53.065 66.183h180.136a3.007 3.007 0 0 0 3.007-3.006v-.031c0-38.007-30.811-68.818-68.819-68.818z" data-original="#c8effe"></path><path fill="#99e6fc" d="M346.129 362.801c-31.58-.468-59.08 19.281-69.991 47.216 14.175 3.175 26.699 10.709 36.079 21.14 2.326-31.204 24.279-57.057 53.296-65.467a73.693 73.693 0 0 0-19.384-2.889z" data-original="#99e6fc"></path><path fill="#dff6fd" d="M261.038 408.335a68.61 68.61 0 0 0-25.194 4.78c-10.679-27.657-37.502-47.285-68.926-47.285-31.984 0-59.215 20.328-69.494 48.767a68.53 68.53 0 0 0-28.674-6.261c-36.94 0-67.083 29.105-68.747 65.635a3.055 3.055 0 0 0 3.054 3.184h326.8c0-38.009-30.811-68.82-68.819-68.82z" data-original="#dff6fd" class="hovered-path"></path><path fill="#c8effe" d="M85.748 434.119a68.54 68.54 0 0 1 24.048 4.337c2.537.948 5.388-.228 6.48-2.707 11.444-25.989 37.42-44.136 67.64-44.136 20.207 0 38.503 8.125 51.835 21.273-10.739-27.536-37.497-47.057-68.833-47.057-31.984 0-59.215 20.328-69.494 48.767a68.53 68.53 0 0 0-28.674-6.261c-36.94 0-67.083 29.105-68.747 65.635a3.055 3.055 0 0 0 3.054 3.184h18.867c10.204-25.233 34.934-43.035 63.824-43.035z" data-original="#c8effe"></path><path fill="#dff6fd" d="M200.362 215.147a52.66 52.66 0 0 0-19.339 3.669c-8.197-21.23-28.788-36.297-52.909-36.297-24.552 0-45.455 15.604-53.345 37.434a52.613 52.613 0 0 0-22.011-4.806c-28.099 0-51.074 21.938-52.731 49.621-.104 1.742 1.306 3.205 3.051 3.205h246.964c1.745 0 3.155-1.464 3.051-3.205-1.657-27.683-24.632-49.621-52.731-49.621z" data-original="#dff6fd" class="hovered-path"></path><path fill="#c8effe" d="M70.065 238.526a53.96 53.96 0 0 1 18.039 3.089 5.141 5.141 0 0 0 6.398-2.69c9.206-19.99 29.412-33.869 52.863-33.869a57.86 57.86 0 0 1 31.779 9.453c-9.186-18.931-28.575-31.991-51.03-31.991-24.552 0-45.455 15.604-53.345 37.434a52.613 52.613 0 0 0-22.011-4.806c-28.099 0-51.074 21.938-52.731 49.621-.104 1.742 1.306 3.205 3.051 3.205h18.778c8.99-17.481 27.197-29.446 48.209-29.446z" data-original="#c8effe"></path><g fill="#ffd15b"><path d="M450.104 326.688h-10.743v-10.744c0-4.142-3.357-7.5-7.5-7.5s-7.5 3.358-7.5 7.5v10.744h-10.743c-4.143 0-7.5 3.358-7.5 7.5s3.357 7.5 7.5 7.5h10.743v10.743c0 4.142 3.357 7.5 7.5 7.5s7.5-3.358 7.5-7.5v-10.743h10.743c4.143 0 7.5-3.358 7.5-7.5s-3.357-7.5-7.5-7.5zM117.356 53.09h-10.744V42.346a7.5 7.5 0 0 0-15 0V53.09H80.869a7.5 7.5 0 0 0 0 15h10.744v10.744a7.5 7.5 0 0 0 15 0V68.09h10.744a7.5 7.5 0 1 0-.001-15z" fill="#ffd15b" data-original="#ffd15b"></path><circle cx="434.22" cy="51.62" r="7.5" fill="#ffd15b" data-original="#ffd15b"></circle><circle cx="443.49" cy="240.14" r="7.5" fill="#ffd15b" data-original="#ffd15b"></circle><circle cx="91.17" cy="326.677" r="7.5" fill="#ffd15b" data-original="#ffd15b"></circle><circle cx="48.93" cy="140.21" r="7.5" fill="#ffd15b" data-original="#ffd15b"></circle></g></g></svg>