<svg xmlns="http://www.w3.org/2000/svg" version="1.1" xmlns:xlink="http://www.w3.org/1999/xlink" xmlns:svgjs="http://svgjs.com/svgjs" width="512" height="512" x="0" y="0" viewBox="0 0 128 128" style="enable-background:new 0 0 512 512" xml:space="preserve" class=""><g><path fill="#f79f63" d="m77.318 19 4.369 8.853 9.77 1.42-7.069 6.891 1.668 9.731-8.738-4.594-8.739 4.594 1.669-9.731-7.07-6.891 9.77-1.42zM99.297 51.279l2.998 6.076 6.705.974-4.852 4.729 1.146 6.677-5.997-3.152-5.997 3.152 1.146-6.677-4.852-4.729 6.705-.974z" data-original="#f79f63"></path><path fill="#fcca46" d="M107.44 79.22a45.608 45.608 0 0 1-66.28 23.35h15.87a6.265 6.265 0 0 0 0-12.53h-.1a10.867 10.867 0 0 0-20.02-5.86 6.8 6.8 0 0 0-10.16 4.65 45.6 45.6 0 0 1 33.31-70.69 38.653 38.653 0 1 0 47.38 61.08z" data-original="#fcca46" class=""></path><path fill="#09aeb2" d="M63.29 96.31a6.282 6.282 0 0 1-6.26 6.26H25.26a6.265 6.265 0 0 1 0-12.53h1.37a6.056 6.056 0 0 1 .12-1.21 6.8 6.8 0 0 1 10.16-4.65 10.867 10.867 0 0 1 20.02 5.86h.1a6.284 6.284 0 0 1 6.26 6.27z" data-original="#09aeb2" class=""></path></g></svg>