<svg xmlns="http://www.w3.org/2000/svg" version="1.1" xmlns:xlink="http://www.w3.org/1999/xlink" xmlns:svgjs="http://svgjs.com/svgjs" width="512" height="512" x="0" y="0" viewBox="0 0 512 512" style="enable-background:new 0 0 512 512" xml:space="preserve" class=""><g><path d="M412.903 214.71c-.141 0-.276.021-.415.021-4.258-64.553-57.825-115.634-123.456-115.634-37.692 0-71.387 16.892-94.107 43.452a107.836 107.836 0 0 0-21.506-2.161c-49.339 0-90.797 33.327-103.361 78.667C29.502 231.468 0 269.183 0 313.806c0 54.729 44.367 99.097 99.097 99.097h313.806c54.73 0 99.097-44.367 99.097-99.097 0-54.729-44.367-99.096-99.097-99.096z" style="" fill="#edebed" data-original="#edebed" class=""></path><path d="M404.645 379.871H201.507c-54.679 0-101.554-42.86-102.398-97.533-.635-41.122 23.809-76.549 59.01-92.131 7.789-3.448 14.118-9.401 17.563-17.191a124.338 124.338 0 0 1 19.208-30.474 107.855 107.855 0 0 0-21.471-2.156c-49.339 0-90.797 33.327-103.361 78.667C28.762 231.695-1.074 270.569.03 316.257c1.311 54.312 47.976 96.646 102.303 96.646h302.312c9.122 0 16.516-7.395 16.516-16.516 0-9.122-7.394-16.516-16.516-16.516z" style="" fill="#dbd9dc" data-original="#dbd9dc" class=""></path></g></svg>