<svg xmlns="http://www.w3.org/2000/svg" version="1.1" xmlns:xlink="http://www.w3.org/1999/xlink" xmlns:svgjs="http://svgjs.com/svgjs" width="512" height="512" x="0" y="0" viewBox="0 0 468.293 468.293" style="enable-background:new 0 0 512 512" xml:space="preserve" class=""><g><path d="M398.851 372.454c38.351 0 69.442-31.09 69.442-69.441 0-30.795-20.065-56.868-47.82-65.963a69.372 69.372 0 0 0 2.986-20.12c0-38.352-31.09-69.441-69.44-69.441-.466 0-.916.061-1.379.07-7.287-40.488-42.623-71.233-85.209-71.233-44.635 0-81.359 33.757-86.107 77.129-10.348-5.243-22.015-8.262-34.41-8.262-42.156 0-76.327 34.173-76.327 76.327 0 .648.082 1.276.097 1.92C31.314 225.492 0 257.968 0 297.848c0 41.203 33.401 74.606 74.605 74.606h324.246z" style="" fill="#e1e6e9" data-original="#e1e6e9"></path><path d="M398.851 391.966c38.351 0 69.442-31.09 69.442-69.441 0-30.795-20.065-56.868-47.82-65.963a69.372 69.372 0 0 0 2.986-20.12c0-38.352-31.09-69.441-69.44-69.441-.466 0-.916.061-1.379.07-7.287-40.488-42.623-71.233-85.209-71.233-44.635 0-81.359 33.757-86.107 77.129-10.348-5.243-22.015-8.262-34.41-8.262-42.156 0-76.327 34.173-76.327 76.327 0 .648.082 1.276.097 1.92C31.314 245.005 0 277.48 0 317.36c0 41.204 33.401 74.606 74.605 74.606h324.246z" style="" fill="#ebf0f3" data-original="#ebf0f3"></path></g></svg>