<svg xmlns="http://www.w3.org/2000/svg" version="1.1" xmlns:xlink="http://www.w3.org/1999/xlink" xmlns:svgjs="http://svgjs.com/svgjs" width="512" height="512" x="0" y="0" viewBox="0 0 128 128" style="enable-background:new 0 0 512 512" xml:space="preserve" class=""><g><path fill="#beebfa" d="M47.31 71.057c.12 0 .236.014.355.018a21.073 21.073 0 0 1 40.654-7.444A16.44 16.44 0 0 1 114.77 71.1c.253-.018.505-.038.762-.038a10.719 10.719 0 0 1 0 21.437H47.31a10.719 10.719 0 0 1 0-21.437z" data-original="#beebfa" class=""></path><path fill="#9ee2f8" d="M11.471 54.3c.233 0 .461.019.69.035a14.908 14.908 0 0 1 23.989-6.774 19.107 19.107 0 0 1 36.463 3.15 21.018 21.018 0 0 0-24.948 20.364c-.119 0-.235-.018-.355-.018a10.663 10.663 0 0 0-7.073 2.679H11.471a9.721 9.721 0 1 1 0-19.441z" data-original="#9ee2f8"></path></g></svg>