<svg xmlns="http://www.w3.org/2000/svg" version="1.1" xmlns:xlink="http://www.w3.org/1999/xlink" xmlns:svgjs="http://svgjs.com/svgjs" width="512" height="512" x="0" y="0" viewBox="0 0 150 150" style="enable-background:new 0 0 512 512" xml:space="preserve" class=""><g><path fill="#d9ebfc" d="M150.2 60.8c0 18.1-14.6 32.8-32.7 32.9H28.7c-1.2 0-2.4-.1-3.6-.2C11.1 91.8.2 79.8.2 65.3c0-15.7 12.7-28.4 28.4-28.4 1.7 0 3.4.1 5 .4C37.9 19.9 53.7 6.9 72.5 6.9c15.7 0 29.3 9 35.9 22.2 2.8-.8 5.8-1.2 8.9-1.2 18.2 0 32.9 14.7 32.9 32.9z" data-original="#d9ebfc"></path><path fill="#c7d7e7" d="M150.2 60.7c0 18.1-14.6 32.8-32.7 32.9H75.2V6.9c14.5 1 27 9.7 33.2 22.1 2.8-.8 5.8-1.2 8.9-1.2 18.2 0 32.9 14.7 32.9 32.9z" data-original="#c7d7e7"></path><path fill="#f0f7fc" d="M116.9 84.3c-1 0-1.8-.8-1.8-1.8s.8-1.8 1.8-1.8c2.5 0 4.9-.5 7.2-1.5 2.2-.9 4.2-2.3 5.9-4s3-3.7 4-5.9c1-2.3 1.5-4.7 1.5-7.2s-.5-4.9-1.5-7.2c-.4-.9 0-1.9.9-2.3s1.9 0 2.3.9c1.1 2.7 1.7 5.6 1.7 8.6s-.6 5.9-1.7 8.6c-1.1 2.6-2.7 5-4.7 7s-4.4 3.6-7 4.7c-2.8 1.3-5.6 1.9-8.6 1.9z" data-original="#f0f7fc"></path><path fill="#53d5ff" d="M66.3 142.6c-9.8 4.3-20.2-6.5-15.9-16.2l10.3-25c.1-.4.5-.7.9-.7.4.1.8.3 1.1.7l10.3 25c2.6 6.3-.4 13.6-6.7 16.2z" data-original="#53d5ff"></path><path fill="#07b6ef" d="M98.3 142.6c-9.8 4.3-20.2-6.5-15.9-16.2l10.3-25c.1-.4.5-.7.9-.7.4.1.8.3 1.1.7l10.3 25c2.6 6.3-.4 13.6-6.7 16.2z" data-original="#07b6ef"></path></g></svg>