<svg xmlns="http://www.w3.org/2000/svg" version="1.1" xmlns:xlink="http://www.w3.org/1999/xlink" xmlns:svgjs="http://svgjs.com/svgjs" width="512" height="512" x="0" y="0" viewBox="0 0 512 512" style="enable-background:new 0 0 512 512" xml:space="preserve" class=""><g><path fill="#b4dbff" d="M409.78 129.834c-2.604.868-5.404-.533-6.398-3.092-16.48-42.437-57.714-72.52-105.975-72.52-65.461 0-117.333 55.161-113.447 120.367.183 3.063-2.255 5.696-5.32 5.546-18.793-.917-35.795 8.632-45.263 23.556 12.576 7.484 22.451 19.032 27.811 32.835.577 1.484 2.201 2.297 3.712 1.794 28.902-9.635 59.347 11.941 59.299 42.931 0 .089-.007.176-.007.265h208.951c43.093 0 78.792-34.585 78.857-77.678.081-53.42-52.399-90.612-102.22-74.004z" data-original="#b4dbff"></path><path fill="#b4dbff" d="M409.78 129.834c-2.604.868-5.404-.533-6.398-3.092-16.48-42.437-57.714-72.52-105.975-72.52-65.461 0-117.333 55.161-113.447 120.367.183 3.063-2.255 5.696-5.32 5.546-18.793-.917-35.795 8.632-45.263 23.556 12.576 7.484 22.451 19.032 27.811 32.835.577 1.484 2.201 2.297 3.712 1.794 28.902-9.635 59.347 11.941 59.299 42.931 0 .089-.007.176-.007.265h208.951c43.093 0 78.792-34.585 78.857-77.678.081-53.42-52.399-90.612-102.22-74.004z" data-original="#b4dbff"></path><path fill="#8bcaff" d="M201.228 237.34c-3.405.852-6.959-.774-8.399-3.975a66.159 66.159 0 0 0-19.074-24.546c-4.16-3.319-4.648-9.509-.941-13.327 9.738-10.029 23.532-16.009 38.48-15.37 3.194.136 5.802-2.559 5.618-5.75-3.435-59.518 39.581-110.61 96.94-118.95a114.49 114.49 0 0 0-16.446-1.199c-65.461 0-117.333 55.161-113.447 120.367.183 3.063-2.255 5.696-5.32 5.546-18.793-.917-35.795 8.632-45.263 23.556 12.576 7.484 22.451 19.032 27.811 32.835.576 1.484 2.201 2.297 3.712 1.794 28.902-9.635 59.347 11.941 59.299 42.931 0 .089-.007.176-.007.265h32.966c.001-.089.007-.176.007-.265.046-29.791-28.085-50.881-55.936-43.912z" data-original="#8bcaff"></path><g fill="#b4dbff"><path d="M42.049 371.16a7.725 7.725 0 0 1-4.069-10.14l5.417-12.678a7.723 7.723 0 0 1 10.141-4.069 7.725 7.725 0 0 1 4.069 10.14l-5.417 12.678a7.725 7.725 0 0 1-10.141 4.069zM23.68 414.157a7.725 7.725 0 0 1-4.069-10.14l5.417-12.678a7.723 7.723 0 0 1 10.141-4.069 7.725 7.725 0 0 1 4.069 10.14l-5.417 12.678a7.725 7.725 0 0 1-10.141 4.069zM5.31 457.154a7.725 7.725 0 0 1-4.069-10.14l5.417-12.678a7.724 7.724 0 0 1 10.141-4.069 7.725 7.725 0 0 1 4.069 10.14l-5.417 12.678a7.725 7.725 0 0 1-10.141 4.069zM99.741 371.16a7.725 7.725 0 0 1-4.069-10.14l5.417-12.678a7.723 7.723 0 0 1 10.141-4.069 7.725 7.725 0 0 1 4.069 10.14l-5.416 12.678a7.727 7.727 0 0 1-10.142 4.069zM81.372 414.157a7.725 7.725 0 0 1-4.069-10.14l5.416-12.678a7.723 7.723 0 0 1 10.141-4.069 7.725 7.725 0 0 1 4.069 10.14l-5.417 12.678a7.724 7.724 0 0 1-10.14 4.069zM63.003 457.154a7.725 7.725 0 0 1-4.069-10.14l5.417-12.678a7.724 7.724 0 0 1 10.141-4.069 7.725 7.725 0 0 1 4.069 10.14l-5.417 12.678a7.726 7.726 0 0 1-10.141 4.069zM157.434 371.16a7.725 7.725 0 0 1-4.069-10.14l5.417-12.678a7.723 7.723 0 0 1 10.141-4.069 7.725 7.725 0 0 1 4.069 10.14l-5.417 12.678a7.725 7.725 0 0 1-10.141 4.069zM139.064 414.157a7.725 7.725 0 0 1-4.069-10.14l5.417-12.678a7.723 7.723 0 0 1 10.141-4.069 7.725 7.725 0 0 1 4.069 10.14l-5.417 12.678a7.725 7.725 0 0 1-10.141 4.069zM120.695 457.154a7.725 7.725 0 0 1-4.069-10.14l5.417-12.678a7.724 7.724 0 0 1 10.141-4.069 7.725 7.725 0 0 1 4.069 10.14l-5.417 12.678a7.725 7.725 0 0 1-10.141 4.069zM215.126 371.16a7.725 7.725 0 0 1-4.069-10.14l5.417-12.678a7.723 7.723 0 0 1 10.141-4.069 7.725 7.725 0 0 1 4.069 10.14l-5.417 12.678a7.725 7.725 0 0 1-10.141 4.069zM196.757 414.157a7.725 7.725 0 0 1-4.069-10.14l5.417-12.678a7.723 7.723 0 0 1 10.141-4.069 7.725 7.725 0 0 1 4.069 10.14l-5.417 12.678a7.725 7.725 0 0 1-10.141 4.069zM178.387 457.154a7.725 7.725 0 0 1-4.069-10.14l5.417-12.678a7.724 7.724 0 0 1 10.141-4.069 7.725 7.725 0 0 1 4.069 10.14l-5.417 12.678a7.725 7.725 0 0 1-10.141 4.069zM283.295 346.008a7.725 7.725 0 0 1-4.069-10.14l5.417-12.678a7.721 7.721 0 0 1 10.141-4.069 7.725 7.725 0 0 1 4.069 10.14l-5.417 12.678a7.725 7.725 0 0 1-10.141 4.069zM264.926 389.005a7.725 7.725 0 0 1-4.069-10.14l5.417-12.678a7.724 7.724 0 0 1 10.141-4.069 7.725 7.725 0 0 1 4.069 10.14l-5.417 12.678a7.725 7.725 0 0 1-10.141 4.069zM246.556 432.002a7.725 7.725 0 0 1-4.069-10.14l5.417-12.678a7.723 7.723 0 0 1 10.141-4.069 7.725 7.725 0 0 1 4.069 10.14l-5.417 12.678a7.725 7.725 0 0 1-10.141 4.069zM340.987 346.008a7.725 7.725 0 0 1-4.069-10.14l5.417-12.678a7.721 7.721 0 0 1 10.141-4.069 7.725 7.725 0 0 1 4.069 10.14l-5.417 12.678a7.725 7.725 0 0 1-10.141 4.069zM322.618 389.005a7.725 7.725 0 0 1-4.069-10.14l5.417-12.678a7.724 7.724 0 0 1 10.141-4.069 7.725 7.725 0 0 1 4.069 10.14l-5.417 12.678a7.725 7.725 0 0 1-10.141 4.069zM304.249 432.002a7.725 7.725 0 0 1-4.069-10.14l5.417-12.678a7.723 7.723 0 0 1 10.141-4.069 7.725 7.725 0 0 1 4.069 10.14l-5.417 12.678a7.725 7.725 0 0 1-10.141 4.069zM398.68 346.008a7.725 7.725 0 0 1-4.069-10.14l5.417-12.678a7.721 7.721 0 0 1 10.141-4.069 7.725 7.725 0 0 1 4.069 10.14l-5.417 12.678a7.725 7.725 0 0 1-10.141 4.069zM380.31 389.005a7.725 7.725 0 0 1-4.069-10.14l5.417-12.678a7.724 7.724 0 0 1 10.141-4.069 7.725 7.725 0 0 1 4.069 10.14l-5.417 12.678a7.725 7.725 0 0 1-10.141 4.069zM361.941 432.002a7.725 7.725 0 0 1-4.069-10.14l5.417-12.678a7.723 7.723 0 0 1 10.141-4.069 7.725 7.725 0 0 1 4.069 10.14l-5.417 12.678a7.725 7.725 0 0 1-10.141 4.069zM456.372 346.008a7.725 7.725 0 0 1-4.069-10.14l5.417-12.678a7.721 7.721 0 0 1 10.141-4.069 7.725 7.725 0 0 1 4.069 10.14l-5.417 12.678a7.725 7.725 0 0 1-10.141 4.069zM438.003 389.005a7.725 7.725 0 0 1-4.069-10.14l5.417-12.678a7.724 7.724 0 0 1 10.141-4.069 7.725 7.725 0 0 1 4.069 10.14l-5.417 12.678a7.725 7.725 0 0 1-10.141 4.069zM419.633 432.002a7.725 7.725 0 0 1-4.069-10.14l5.417-12.678a7.723 7.723 0 0 1 10.141-4.069 7.725 7.725 0 0 1 4.069 10.14l-5.417 12.678a7.725 7.725 0 0 1-10.141 4.069z" fill="#b4dbff" data-original="#b4dbff"></path></g><path fill="#d9edff" d="M165.739 237.872c-1.519.506-3.151-.311-3.731-1.803-9.609-24.744-33.651-42.284-61.791-42.284-38.168 0-68.413 32.163-66.147 70.182.106 1.786-1.315 3.321-3.102 3.234-16.861-.823-31.262 12.795-30.964 30.066.28 16.208 13.857 29.045 30.068 29.045h149.289c25.126 0 45.941-20.166 45.979-45.292.048-31.146-30.552-52.831-59.601-43.148z" data-original="#d9edff"></path><path fill="#b4dbff" d="M30.223 297.267c-.298-17.271 14.103-30.889 30.964-30.066 1.787.087 3.208-1.448 3.102-3.234-1.957-32.844 20.354-61.297 51.069-68.441a66.432 66.432 0 0 0-15.14-1.741c-38.168 0-68.413 32.163-66.147 70.182.107 1.786-1.315 3.321-3.102 3.234-16.861-.823-31.262 12.795-30.964 30.066.28 16.208 13.857 29.045 30.068 29.045h30.219c-16.212.001-29.789-12.836-30.069-29.045z" data-original="#b4dbff"></path></g></svg>