<svg xmlns="http://www.w3.org/2000/svg" version="1.1" xmlns:xlink="http://www.w3.org/1999/xlink" xmlns:svgjs="http://svgjs.com/svgjs" width="512" height="512" x="0" y="0" viewBox="0 0 512 512" style="enable-background:new 0 0 512 512" xml:space="preserve" class=""><g><path fill="#daeaff" d="M298.032 134.504c-24.154 0-43.535-20.724-41.792-45.225 1.431-20.112 17.362-36.563 37.42-38.616a42.512 42.512 0 0 1 8.292-.042c3.682.344 7.077-1.982 8.283-5.478C319.293 18.875 344.214 0 373.559 0c22.017 0 41.543 10.627 53.752 27.027 3.113 4.181 7.969 6.634 13.181 6.6l.318-.001c28.143 0 50.903 23.049 50.432 51.301-.462 27.656-23.602 49.577-51.262 49.577z" data-original="#daeaff"></path><path fill="#bed8fb" d="m440.811 33.626-.318.001c-5.213.034-10.069-2.419-13.181-6.6C415.103 10.627 395.576 0 373.559 0a67.36 67.36 0 0 0-11.651 1.022c17.159 3.023 32.065 12.576 42.061 26.004 3.113 4.181 7.969 6.634 13.181 6.6l.319-.001c28.143 0 50.903 23.049 50.432 51.301-.462 27.656-23.602 49.577-51.262 49.577h23.342c27.66 0 50.8-21.921 51.262-49.577.471-28.251-22.289-51.3-50.432-51.3z" data-original="#bed8fb"></path><path fill="#cbe0fc" d="M448.549 34.216a50.882 50.882 0 0 0-7.738-.59l-.318.001c-5.213.034-10.069-2.419-13.181-6.6a66.787 66.787 0 0 0-2.878-3.591c-24.28 9.443-41.541 33.051-41.541 60.629a7.612 7.612 0 0 0 15.223 0c0-27.469 22.348-49.817 49.817-49.817.208 0 .412-.015.616-.032z" data-original="#cbe0fc"></path><path fill="#ecf4ff" d="M440.942 168.13h-.023c-1.239 0-2.305-.833-2.652-2.023-8.146-27.974-33.974-48.416-64.577-48.416-11.443 0-22.212 2.867-31.642 7.911-3.696 1.977-8.284.944-10.634-2.527-9.067-13.393-24.397-22.197-41.788-22.197-4.067 0-8.021.484-11.808 1.395-4.104.987-8.34-1.218-9.665-5.225-12.18-36.838-46.889-63.421-87.811-63.421-51.071 0-92.471 41.401-92.471 92.471 0 1.16.03 2.312.078 3.46a4.797 4.797 0 0 1-1.024 3.146l-.072.093c-.876 1.123-2.202 1.785-3.624 1.862-44.745 2.438-80.183 39.842-79.41 85.374.782 46.028 39.073 82.603 85.108 82.603H439.94c36.961 0 67.769-29.401 68.249-66.359.487-37.554-29.807-68.147-67.247-68.147z" data-original="#ecf4ff" class=""></path><path fill="#ecf4ff" d="M440.942 168.13h-.023c-1.239 0-2.305-.833-2.652-2.023-8.146-27.974-33.974-48.416-64.577-48.416-11.443 0-22.212 2.867-31.642 7.911-3.696 1.977-8.284.944-10.634-2.527-9.067-13.393-24.397-22.197-41.788-22.197-4.067 0-8.021.484-11.808 1.395-4.104.987-8.34-1.218-9.665-5.225-12.18-36.838-46.889-63.421-87.811-63.421-51.071 0-92.471 41.401-92.471 92.471 0 1.16.03 2.312.078 3.46a4.797 4.797 0 0 1-1.024 3.146l-.072.093c-.876 1.123-2.202 1.785-3.624 1.862-44.745 2.438-80.183 39.842-79.41 85.374.782 46.028 39.073 82.603 85.108 82.603H439.94c36.961 0 67.769-29.401 68.249-66.359.487-37.554-29.807-68.147-67.247-68.147z" data-original="#ecf4ff" class=""></path><path fill="#daeaff" d="M440.942 168.13h-.023c-1.239 0-2.305-.833-2.652-2.023-8.146-27.974-33.974-48.416-64.577-48.416-3.979 0-7.874.354-11.663 1.019 25.347 4.439 45.813 23.065 52.898 47.398.346 1.189 1.413 2.023 2.652 2.023h.023c37.439 0 67.733 30.593 67.246 68.145-.479 36.958-31.288 66.359-68.249 66.359h23.342c36.961 0 67.769-29.401 68.249-66.359.488-37.553-29.806-68.146-67.246-68.146z" data-original="#daeaff"></path><path fill="#ddeafb" d="M164.324 218.569c0 4.204 3.408 7.611 7.612 7.611s7.611-3.407 7.611-7.611c0-52.052-40.382-94.848-91.462-98.708a94.009 94.009 0 0 0-.214 6.236c0 1.16.03 2.312.078 3.46a4.8 4.8 0 0 1-1.024 3.146l-.072.093c-.876 1.123-2.202 1.785-3.624 1.862-.675.037-1.34.107-2.011.159 45.884.359 83.106 37.784 83.106 83.752zM276.979 102.427c-3.828.521-7.592-1.645-8.827-5.38a92.107 92.107 0 0 0-2.555-6.809c-28.111 9.93-48.315 36.756-48.315 68.224a7.61 7.61 0 0 0 7.611 7.611 7.611 7.611 0 0 0 7.612-7.611c0-27.15 19.045-50.156 44.473-55.994v-.041zM381.302 239.187c0-4.204-3.408-7.611-7.612-7.611s-7.612 3.407-7.612 7.611c0 26.019 12.705 49.117 32.229 63.446h41.632c.815 0 1.623-.032 2.431-.06-33.884-1.257-61.068-29.199-61.068-63.386z" data-original="#ddeafb"></path><path fill="#ffe07d" d="M229.351 269.007h65.425c5.738 0 9.79 5.621 7.975 11.065l-26.249 78.748c-1.814 5.443 2.237 11.065 7.975 11.065h16.619c6.285 0 10.347 6.645 7.482 12.239l-61.515 120.107c-2.308 4.102-8.583 1.891-7.809-2.752l15.028-86.117c.898-5.143-3.061-9.852-8.281-9.852h-38.716c-5.264 0-9.233-4.782-8.263-9.956l22.067-117.691a8.405 8.405 0 0 1 8.262-6.856z" data-original="#ffe07d"></path><path fill="#ffd064" d="M301.095 369.885h-16.619c-5.738 0-9.789-5.621-7.975-11.065l26.249-78.748c1.814-5.443-2.237-11.065-7.975-11.065h-23.342c5.738 0 9.789 5.621 7.975 11.065l-26.249 78.748c-1.814 5.443 2.237 11.065 7.975 11.065h16.619c6.285 0 10.347 6.645 7.482 12.239l-38.683 75.529-7.299 41.827c-.774 4.643 5.502 6.854 7.809 2.752l61.515-120.107c2.865-5.595-1.197-12.24-7.482-12.24z" data-original="#ffd064"></path><g fill="#bed8fb"><path d="M37.432 328.648a7.611 7.611 0 0 0-7.611 7.612v67.252a7.611 7.611 0 1 0 15.222 0V336.26a7.61 7.61 0 0 0-7.611-7.612zM146.716 328.648a7.612 7.612 0 0 0-7.612 7.612v67.252a7.611 7.611 0 1 0 15.223 0V336.26a7.611 7.611 0 0 0-7.611-7.612zM92.073 429.525a7.612 7.612 0 0 0-7.612 7.612v67.252a7.611 7.611 0 1 0 15.223 0v-67.252a7.61 7.61 0 0 0-7.611-7.612zM419.927 429.525a7.612 7.612 0 0 0-7.612 7.612v67.252a7.612 7.612 0 1 0 15.224 0v-67.252a7.613 7.613 0 0 0-7.612-7.612zM365.284 328.648a7.611 7.611 0 0 0-7.611 7.612v67.252a7.611 7.611 0 1 0 15.223 0V336.26a7.611 7.611 0 0 0-7.612-7.612zM474.568 328.648a7.612 7.612 0 0 0-7.612 7.612v67.252a7.612 7.612 0 1 0 15.224 0V336.26a7.613 7.613 0 0 0-7.612-7.612z" fill="#bed8fb" data-original="#bed8fb"></path></g></g></svg>