<svg xmlns="http://www.w3.org/2000/svg" version="1.1" xmlns:xlink="http://www.w3.org/1999/xlink" xmlns:svgjs="http://svgjs.com/svgjs" width="512" height="512" x="0" y="0" viewBox="0 0 682.667 682.667" style="enable-background:new 0 0 512 512" xml:space="preserve" class=""><g><defs><clipPath id="a" clipPathUnits="userSpaceOnUse"><path d="M0 512h512V0H0Z" fill="#000000" data-original="#000000"></path></clipPath></defs><g clip-path="url(#a)" transform="matrix(1.33333 0 0 -1.33333 0 682.667)"><path d="M0 0h-34.747l17.327 17.327c6.035 6.035 6.035 15.819 0 21.854-6.034 6.035-15.819 6.035-21.853 0L-78.454 0h-43.707l17.327 17.327c6.035 6.035 6.035 15.819 0 21.854-6.034 6.035-15.818 6.035-21.853 0L-165.868 0h-37.373l88.238 88.238h55.41c8.534 0 15.453 6.918 15.453 15.452v.001c0 8.534-6.919 15.452-15.453 15.452h-24.505l24.57 24.57c6.035 6.035 6.035 15.819 0 21.854-6.035 6.034-15.819 6.034-21.853 0l-24.57-24.57v24.504c0 8.535-6.919 15.453-15.453 15.453-8.534 0-15.453-6.918-15.453-15.453v-55.41l-88.238-88.238v37.374l6.401 6.4 32.78 32.781c6.035 6.034 6.035 15.818 0 21.853-6.034 6.035-15.818 6.035-21.853 0l-17.328-17.327v43.707l6.401 6.4 32.78 32.78c6.035 6.035 6.035 15.819 0 21.854-6.034 6.035-15.818 6.035-21.853 0l-17.328-17.328v34.748c0 8.534-6.918 15.452-15.452 15.452-8.535 0-15.453-6.918-15.453-15.452v-34.748l-17.327 17.328c-6.035 6.035-15.819 6.035-21.854 0-6.035-6.035-6.035-15.819 0-21.854l32.78-32.78 6.401-6.4v-43.707l-17.327 17.327c-6.035 6.035-15.819 6.035-21.854 0-6.035-6.035-6.035-15.819 0-21.853l32.78-32.781 6.401-6.4V21.853l-88.238 88.238v55.41c0 8.535-6.918 15.453-15.453 15.453-8.534 0-15.452-6.918-15.452-15.453v-24.504l-24.57 24.57c-6.035 6.034-15.819 6.034-21.854 0-6.034-6.035-6.034-15.819 0-21.854l24.57-24.57h-24.504c-8.535 0-15.453-6.918-15.453-15.452v-.001c0-8.534 6.918-15.452 15.453-15.452h55.41L-277.853 0h-37.374l-39.181 39.181c-6.034 6.035-15.818 6.035-21.853 0-6.035-6.035-6.035-15.819 0-21.854L-358.934 0h-43.707l-39.18 39.181c-6.035 6.035-15.819 6.035-21.854 0-6.035-6.035-6.035-15.819 0-21.854L-446.347 0h-34.748c-8.534 0-15.452-6.918-15.452-15.453 0-8.534 6.918-15.452 15.452-15.452h34.748l-17.328-17.328c-6.035-6.035-6.035-15.819 0-21.853 6.035-6.035 15.819-6.035 21.854 0l39.18 39.181h43.707l-17.327-17.328c-6.035-6.035-6.035-15.819 0-21.853 6.035-6.035 15.819-6.035 21.853 0l32.78 32.78 6.401 6.401h37.374l-88.238-88.238h-55.41c-8.535 0-15.453-6.919-15.453-15.453 0-8.534 6.918-15.453 15.453-15.453h24.504l-24.57-24.57c-6.034-6.034-6.034-15.818 0-21.853 6.035-6.035 15.819-6.035 21.854 0l24.57 24.57v-24.505c0-8.534 6.918-15.452 15.452-15.452 8.535 0 15.453 6.918 15.453 15.452v55.41L-256-52.759v-37.373l-6.401-6.401-32.78-32.78c-6.035-6.035-6.035-15.819 0-21.853v-.001c6.035-6.034 15.819-6.034 21.854.001L-256-133.839v-43.707l-6.401-6.401-32.78-32.78c-6.035-6.035-6.035-15.819 0-21.853 6.035-6.035 15.819-6.035 21.854 0L-256-221.253V-256c0-8.534 6.918-15.453 15.453-15.453 8.534 0 15.452 6.919 15.452 15.453v34.747l17.328-17.327c6.035-6.035 15.819-6.035 21.853 0 6.035 6.034 6.035 15.818 0 21.853l-32.78 32.78-6.401 6.401v43.707l17.328-17.327c6.035-6.035 15.819-6.035 21.853-.001v.001c6.035 6.034 6.035 15.818 0 21.853l-32.78 32.78-6.401 6.401v37.373l88.238-88.238v-55.41c0-8.534 6.919-15.452 15.453-15.452 8.534 0 15.453 6.918 15.453 15.452v24.505l24.57-24.57c6.034-6.035 15.818-6.035 21.853 0 6.035 6.035 6.035 15.819 0 21.853l-24.57 24.57h24.505c8.534 0 15.453 6.919 15.453 15.453 0 8.534-6.919 15.453-15.453 15.453h-55.41l-88.238 88.238h37.373l6.401-6.401 32.78-32.78c6.035-6.035 15.819-6.035 21.853 0 6.035 6.034 6.035 15.818 0 21.853l-17.327 17.328h43.707l39.181-39.181c6.034-6.035 15.819-6.035 21.853 0 6.035 6.034 6.035 15.818 0 21.853l-17.327 17.328H0c8.534 0 15.453 6.918 15.453 15.452C15.453-6.918 8.534 0 0 0" style="fill-opacity:1;fill-rule:nonzero;stroke:none" transform="translate(496.547 271.453)" fill="#a2ddfd" data-original="#a2ddfd"></path><path d="M0 0c-8.534 0-15.453 6.918-15.453 15.453 0 8.534 6.919 15.452 15.453 15.452h-37.373l26.426 26.427c-6.034-6.034-15.818-6.034-21.853 0-6.034 6.035-6.035 15.818 0 21.853l-26.427-26.426v37.373l6.401 6.401 32.78 32.78c6.035 6.035 6.035 15.819 0 21.854-6.035 6.034-15.819 6.034-21.853 0l-17.328-17.328v43.707l6.401 6.401 32.78 32.78c6.035 6.034 6.035 15.819 0 21.853-6.035 6.035-15.819 6.035-21.853 0l-17.328-17.327V256c0 8.534-6.918 15.453-15.452 15.453-8.535 0-15.453-6.919-15.453-15.453v-34.747l-17.328 17.327c-6.034 6.035-15.818 6.035-21.853 0-6.035-6.034-6.035-15.819 0-21.853l32.78-32.78 6.401-6.401v-43.707l-17.328 17.328c-6.034 6.034-15.818 6.034-21.853 0-6.035-6.035-6.035-15.819 0-21.854l32.78-32.78 6.401-6.401V52.759l-88.238 88.238v55.41c0 8.534-6.918 15.453-15.453 15.453-8.534 0-15.452-6.919-15.452-15.453v-24.505l-24.57 24.57c-6.035 6.035-15.819 6.035-21.854 0-6.035-6.035-6.035-15.819 0-21.853l24.57-24.57h-24.505c-8.534 0-15.452-6.919-15.452-15.453 0-8.534 6.918-15.453 15.452-15.453h55.411l88.237-88.238h-37.373l-39.181 39.181c-6.034 6.035-15.819 6.035-21.853 0-6.035-6.034-6.035-15.818 0-21.853l17.327-17.328h-43.707l-39.181 39.181c-6.034 6.035-15.818 6.035-21.853 0-6.035-6.034-6.035-15.818 0-21.853l17.328-17.328h-34.748c-8.534 0-15.452-6.918-15.452-15.452 0-8.535 6.918-15.453 15.452-15.453h34.748l-17.328-17.327c-6.035-6.035-6.035-15.819 0-21.854 6.035-6.035 15.819-6.035 21.853 0L-236.773 0h43.707l-17.327-17.327c-6.035-6.035-6.035-15.819 0-21.854 6.034-6.035 15.819-6.034 21.853 0l32.78 32.78L-149.359 0h37.373l-88.237-88.238h-55.411c-8.534 0-15.452-6.918-15.452-15.452 0-8.535 6.918-15.453 15.452-15.453h24.505l-24.57-24.57c-6.035-6.035-6.035-15.819 0-21.854 6.035-6.034 15.819-6.034 21.854 0l24.57 24.57v-24.504c0-8.535 6.918-15.453 15.452-15.453 8.535 0 15.453 6.918 15.453 15.453v55.41l88.238 88.238v-37.374l-6.401-6.4-32.78-32.781c-6.035-6.034-6.035-15.818 0-21.853 6.035-6.035 15.819-6.035 21.853 0l17.328 17.327v-43.706l-6.401-6.401-32.78-32.78c-6.035-6.035-6.035-15.819 0-21.854 6.035-6.035 15.819-6.035 21.853 0l17.328 17.328v-34.748c0-8.534 6.918-15.452 15.453-15.452 8.534 0 15.452 6.918 15.452 15.452v34.748l17.328-17.328c6.034-6.035 15.818-6.035 21.853 0 6.035 6.035 6.035 15.819 0 21.854l-32.78 32.78-6.401 6.401v43.706l17.328-17.327c6.034-6.035 15.818-6.035 21.853 0 6.035 6.035 6.035 15.819 0 21.853l-32.78 32.781-6.401 6.4v37.374L-32.8-48.28c-6.035 6.034-6.035 15.818 0 21.853 6.035 6.034 15.818 6.035 21.852.001L-37.373 0Z" style="fill-opacity:1;fill-rule:nonzero;stroke:none" transform="translate(330.68 240.547)" fill="#7acdf9" data-original="#7acdf9" class=""></path></g></g></svg>